<svg width="81" height="81" viewBox="0 0 81 81" fill="none" xmlns="http://www.w3.org/2000/svg">
<path d="M64.2519 13.691L50.808 16.7402C49.7957 16.9698 49.1083 17.8616 49.0885 18.8556C48.6457 17.9665 47.6408 17.4586 46.6246 17.6891L5.41099 27.0368C2.69848 27.652 0.998639 30.3491 1.61387 33.0616L3.54116 41.559L6.35022 43.3124L8.04613 50.7896L6.29713 53.7099L8.10604 61.6853C8.72127 64.3979 11.4184 66.0977 14.1309 65.4825L55.3445 56.1348C56.3567 55.9052 57.0442 55.0134 57.064 54.0194C57.5068 54.9085 58.5117 55.4164 59.5279 55.1859L72.9718 52.1367C75.6843 51.5215 77.3842 48.8243 76.769 46.1118L70.2768 17.4881C69.6615 14.7756 66.9644 13.0758 64.2519 13.691Z" fill="#87BEC5"/>
<path d="M5.41099 27.0368C2.69848 27.652 0.998639 30.3491 1.61387 33.0616L3.54116 41.559L6.35022 43.3124L8.04613 50.7896L6.29713 53.7099L8.10604 61.6853C8.72127 64.3979 11.4184 66.0977 14.1309 65.4825L16.9897 64.8341L8.2698 26.3884L5.41099 27.0368Z" fill="#5F858A"/>
<path d="M35.2762 23.8005L12.8564 28.8856L13.338 31.0089L35.7578 25.9239L35.2762 23.8005Z" fill="#5F858A"/>
<path opacity="0.4" d="M46.6858 25.678L13.8193 33.1324L14.3009 35.2558L47.1674 27.8013L46.6858 25.678Z" fill="white"/>
<path d="M45.7234 21.4312L38.0801 23.1647L38.5617 25.2881L46.2049 23.5545L45.7234 21.4312Z" fill="#5F858A"/>
<path opacity="0.4" d="M38.4947 32.0886L14.8018 37.4625L15.2834 39.5858L38.9763 34.212L38.4947 32.0886Z" fill="white"/>
<path opacity="0.4" d="M47.6679 30.0077L41.2979 31.4525L41.7795 33.5758L48.1495 32.131L47.6679 30.0077Z" fill="white"/>
<path opacity="0.4" d="M28.0142 39.0186L15.7842 41.7925L16.2658 43.9159L28.4958 41.142L28.0142 39.0186Z" fill="white"/>
<path opacity="0.4" d="M48.6502 34.3381L31.0703 38.3254L31.5519 40.4487L49.1318 36.4614L48.6502 34.3381Z" fill="white"/>
<path opacity="0.4" d="M32.0531 42.6591L16.7666 46.1262L17.2482 48.2496L32.5347 44.7824L32.0531 42.6591Z" fill="white"/>
<path opacity="0.4" d="M49.6339 38.6712L34.8574 42.0227L35.339 44.1461L50.1155 40.7946L49.6339 38.6712Z" fill="white"/>
<path d="M59.7321 18.2532L52.0889 19.9868L52.5705 22.1102L60.2137 20.3766L59.7321 18.2532Z" fill="#5F858A"/>
<path opacity="0.4" d="M67.5761 20.9396L53.0527 24.2337L53.5343 26.3571L68.0577 23.063L67.5761 20.9396Z" fill="white"/>
<path opacity="0.4" d="M58.6209 27.5235L54.0342 28.5638L54.5158 30.6871L59.1025 29.6468L58.6209 27.5235Z" fill="white"/>
<path opacity="0.4" d="M68.5583 25.2695L60.915 27.0031L61.3966 29.1265L69.0399 27.3929L68.5583 25.2695Z" fill="white"/>
<path opacity="0.4" d="M73.3535 46.4163L58.8301 49.7103L59.3117 51.8337L73.8351 48.5396L73.3535 46.4163Z" fill="white"/>
<path d="M52.4651 51.1545L19.5986 58.609L20.0802 60.7324L52.9467 53.2779L52.4651 51.1545Z" fill="#5F858A"/>
<path d="M69.3937 68.0031C75.5276 68.0031 80.5002 63.0305 80.5002 56.8965C80.5002 50.7625 75.5276 45.79 69.3937 45.79C63.2597 45.79 58.2871 50.7625 58.2871 56.8965C58.2871 63.0305 63.2597 68.0031 69.3937 68.0031Z" fill="#FF0000"/>
<path d="M69.442 59.9895C70.2071 59.9895 70.8277 59.3978 70.8277 58.669V51.3245C70.8277 50.607 70.2055 50.0217 69.442 50.0217C68.6785 50.0217 68.0547 50.6054 68.0547 51.3245V58.669C68.0547 59.3961 68.6769 59.9895 69.442 59.9895Z" fill="white"/>
<path d="M70.6654 61.9985C70.4527 61.7679 70.067 61.4922 69.4416 61.4922C68.3797 61.4922 67.8066 62.3226 67.8066 63.1046C67.8066 63.5206 67.9558 63.9092 68.2241 64.1994C68.4352 64.4268 68.8162 64.6976 69.44 64.6976C70.5209 64.6976 71.0876 63.8963 71.0876 63.1046C71.0876 62.687 70.9368 62.2935 70.6638 61.9985H70.6654Z" fill="white"/>
</svg>
